<mxfile host="app.diagrams.net" modified="2024-01-24T04:40:15.125Z" agent="Mozilla/5.0 (Windows NT 10.0; Win64; x64) AppleWebKit/537.36 (KHTML, like Gecko) Chrome/120.0.0.0 Safari/537.36 Edg/120.0.0.0" etag="6BHNhHUincetQHscinOd" version="23.0.0" type="device">
  <diagram name="페이지-1" id="5rSsUJO_md_BmFvCSHrt">
    <mxGraphModel dx="1982" dy="661" grid="1" gridSize="10" guides="1" tooltips="1" connect="1" arrows="1" fold="1" page="1" pageScale="1" pageWidth="827" pageHeight="1169" math="0" shadow="0">
      <root>
        <mxCell id="0" />
        <mxCell id="1" parent="0" />
        <mxCell id="hZePbDuDjzv67LmMwOUX-1" value="과일" style="rounded=0;whiteSpace=wrap;html=1;" vertex="1" parent="1">
          <mxGeometry x="90" y="160" width="120" height="60" as="geometry" />
        </mxCell>
        <mxCell id="hZePbDuDjzv67LmMwOUX-2" value="가전" style="rounded=0;whiteSpace=wrap;html=1;" vertex="1" parent="1">
          <mxGeometry x="380" y="160" width="120" height="60" as="geometry" />
        </mxCell>
        <mxCell id="hZePbDuDjzv67LmMwOUX-3" value="가구" style="rounded=0;whiteSpace=wrap;html=1;" vertex="1" parent="1">
          <mxGeometry x="380" y="310" width="120" height="60" as="geometry" />
        </mxCell>
        <mxCell id="hZePbDuDjzv67LmMwOUX-4" value="자동차" style="rounded=0;whiteSpace=wrap;html=1;" vertex="1" parent="1">
          <mxGeometry x="90" y="310" width="120" height="60" as="geometry" />
        </mxCell>
        <mxCell id="hZePbDuDjzv67LmMwOUX-5" value="관계 X" style="text;html=1;strokeColor=none;fillColor=none;align=center;verticalAlign=middle;whiteSpace=wrap;rounded=0;" vertex="1" parent="1">
          <mxGeometry x="260" y="175" width="60" height="30" as="geometry" />
        </mxCell>
        <mxCell id="hZePbDuDjzv67LmMwOUX-7" value="관계 X" style="text;html=1;strokeColor=none;fillColor=none;align=center;verticalAlign=middle;whiteSpace=wrap;rounded=0;" vertex="1" parent="1">
          <mxGeometry x="260" y="320" width="60" height="30" as="geometry" />
        </mxCell>
        <mxCell id="hZePbDuDjzv67LmMwOUX-8" value="테이블간 관계가 1 : 1" style="text;html=1;strokeColor=none;fillColor=none;align=center;verticalAlign=middle;whiteSpace=wrap;rounded=0;" vertex="1" parent="1">
          <mxGeometry x="10" y="480" width="260" height="30" as="geometry" />
        </mxCell>
        <mxCell id="hZePbDuDjzv67LmMwOUX-19" style="edgeStyle=orthogonalEdgeStyle;rounded=0;orthogonalLoop=1;jettySize=auto;html=1;entryX=0;entryY=0.5;entryDx=0;entryDy=0;endArrow=none;endFill=0;" edge="1" parent="1" source="hZePbDuDjzv67LmMwOUX-9" target="hZePbDuDjzv67LmMwOUX-15">
          <mxGeometry relative="1" as="geometry" />
        </mxCell>
        <mxCell id="hZePbDuDjzv67LmMwOUX-9" value="강의" style="rounded=0;whiteSpace=wrap;html=1;" vertex="1" parent="1">
          <mxGeometry x="-150" y="2853" width="120" height="60" as="geometry" />
        </mxCell>
        <mxCell id="hZePbDuDjzv67LmMwOUX-10" value="학생" style="rounded=0;whiteSpace=wrap;html=1;" vertex="1" parent="1">
          <mxGeometry x="421.25" y="2853" width="120" height="60" as="geometry" />
        </mxCell>
        <mxCell id="hZePbDuDjzv67LmMwOUX-13" value="제자" style="rounded=0;whiteSpace=wrap;html=1;" vertex="1" parent="1">
          <mxGeometry x="400" y="1250" width="120" height="60" as="geometry" />
        </mxCell>
        <mxCell id="hZePbDuDjzv67LmMwOUX-23" style="edgeStyle=orthogonalEdgeStyle;rounded=0;orthogonalLoop=1;jettySize=auto;html=1;endArrow=none;endFill=0;" edge="1" parent="1" source="hZePbDuDjzv67LmMwOUX-14" target="hZePbDuDjzv67LmMwOUX-16">
          <mxGeometry relative="1" as="geometry" />
        </mxCell>
        <mxCell id="hZePbDuDjzv67LmMwOUX-14" value="과외선생님" style="rounded=0;whiteSpace=wrap;html=1;" vertex="1" parent="1">
          <mxGeometry x="25" y="1250" width="120" height="60" as="geometry" />
        </mxCell>
        <mxCell id="hZePbDuDjzv67LmMwOUX-20" style="edgeStyle=orthogonalEdgeStyle;rounded=0;orthogonalLoop=1;jettySize=auto;html=1;entryX=0;entryY=0.5;entryDx=0;entryDy=0;endArrow=none;endFill=0;" edge="1" parent="1" source="hZePbDuDjzv67LmMwOUX-15" target="hZePbDuDjzv67LmMwOUX-10">
          <mxGeometry relative="1" as="geometry" />
        </mxCell>
        <mxCell id="hZePbDuDjzv67LmMwOUX-15" value="수강신청" style="rhombus;whiteSpace=wrap;html=1;" vertex="1" parent="1">
          <mxGeometry x="157.5" y="2843" width="80" height="80" as="geometry" />
        </mxCell>
        <mxCell id="hZePbDuDjzv67LmMwOUX-16" value="교육" style="rhombus;whiteSpace=wrap;html=1;" vertex="1" parent="1">
          <mxGeometry x="235" y="1240" width="80" height="80" as="geometry" />
        </mxCell>
        <mxCell id="hZePbDuDjzv67LmMwOUX-35" value="부서" style="rounded=0;whiteSpace=wrap;html=1;" vertex="1" parent="1">
          <mxGeometry x="415" y="1030" width="120" height="60" as="geometry" />
        </mxCell>
        <mxCell id="hZePbDuDjzv67LmMwOUX-36" style="edgeStyle=orthogonalEdgeStyle;rounded=0;orthogonalLoop=1;jettySize=auto;html=1;entryX=0;entryY=0.5;entryDx=0;entryDy=0;endArrow=none;endFill=0;" edge="1" parent="1" source="hZePbDuDjzv67LmMwOUX-37" target="hZePbDuDjzv67LmMwOUX-39">
          <mxGeometry relative="1" as="geometry" />
        </mxCell>
        <mxCell id="hZePbDuDjzv67LmMwOUX-37" value="직원" style="rounded=0;whiteSpace=wrap;html=1;" vertex="1" parent="1">
          <mxGeometry x="45" y="1030" width="120" height="60" as="geometry" />
        </mxCell>
        <mxCell id="hZePbDuDjzv67LmMwOUX-38" style="edgeStyle=orthogonalEdgeStyle;rounded=0;orthogonalLoop=1;jettySize=auto;html=1;entryX=0;entryY=0.5;entryDx=0;entryDy=0;endArrow=none;endFill=0;" edge="1" parent="1" source="hZePbDuDjzv67LmMwOUX-39" target="hZePbDuDjzv67LmMwOUX-35">
          <mxGeometry relative="1" as="geometry" />
        </mxCell>
        <mxCell id="hZePbDuDjzv67LmMwOUX-39" value="소속" style="rhombus;whiteSpace=wrap;html=1;" vertex="1" parent="1">
          <mxGeometry x="255" y="1020" width="80" height="80" as="geometry" />
        </mxCell>
        <mxCell id="hZePbDuDjzv67LmMwOUX-40" value="1" style="text;html=1;align=center;verticalAlign=middle;resizable=0;points=[];autosize=1;strokeColor=none;fillColor=none;" vertex="1" parent="1">
          <mxGeometry x="165" y="1030" width="30" height="30" as="geometry" />
        </mxCell>
        <mxCell id="hZePbDuDjzv67LmMwOUX-41" value="1" style="text;html=1;align=center;verticalAlign=middle;resizable=0;points=[];autosize=1;strokeColor=none;fillColor=none;" vertex="1" parent="1">
          <mxGeometry x="235" y="1030" width="30" height="30" as="geometry" />
        </mxCell>
        <mxCell id="hZePbDuDjzv67LmMwOUX-42" value="1" style="text;html=1;align=center;verticalAlign=middle;resizable=0;points=[];autosize=1;strokeColor=none;fillColor=none;" vertex="1" parent="1">
          <mxGeometry x="385" y="1030" width="30" height="30" as="geometry" />
        </mxCell>
        <mxCell id="hZePbDuDjzv67LmMwOUX-43" value="N" style="text;html=1;align=center;verticalAlign=middle;resizable=0;points=[];autosize=1;strokeColor=none;fillColor=none;" vertex="1" parent="1">
          <mxGeometry x="325" y="1030" width="30" height="30" as="geometry" />
        </mxCell>
        <mxCell id="hZePbDuDjzv67LmMwOUX-44" value="1" style="text;html=1;align=center;verticalAlign=middle;resizable=0;points=[];autosize=1;strokeColor=none;fillColor=none;" vertex="1" parent="1">
          <mxGeometry x="150" y="1250" width="30" height="30" as="geometry" />
        </mxCell>
        <mxCell id="hZePbDuDjzv67LmMwOUX-45" value="n" style="text;html=1;align=center;verticalAlign=middle;resizable=0;points=[];autosize=1;strokeColor=none;fillColor=none;" vertex="1" parent="1">
          <mxGeometry x="220" y="1250" width="30" height="30" as="geometry" />
        </mxCell>
        <mxCell id="hZePbDuDjzv67LmMwOUX-46" value="n" style="text;html=1;align=center;verticalAlign=middle;resizable=0;points=[];autosize=1;strokeColor=none;fillColor=none;" vertex="1" parent="1">
          <mxGeometry x="305" y="1250" width="30" height="30" as="geometry" />
        </mxCell>
        <mxCell id="hZePbDuDjzv67LmMwOUX-47" value="1" style="text;html=1;align=center;verticalAlign=middle;resizable=0;points=[];autosize=1;strokeColor=none;fillColor=none;" vertex="1" parent="1">
          <mxGeometry x="375" y="1250" width="30" height="30" as="geometry" />
        </mxCell>
        <mxCell id="hZePbDuDjzv67LmMwOUX-48" style="edgeStyle=orthogonalEdgeStyle;rounded=0;orthogonalLoop=1;jettySize=auto;html=1;entryX=0;entryY=0.5;entryDx=0;entryDy=0;endArrow=none;endFill=0;" edge="1" parent="1" source="hZePbDuDjzv67LmMwOUX-49" target="hZePbDuDjzv67LmMwOUX-52">
          <mxGeometry relative="1" as="geometry" />
        </mxCell>
        <mxCell id="hZePbDuDjzv67LmMwOUX-49" value="남자" style="rounded=0;whiteSpace=wrap;html=1;" vertex="1" parent="1">
          <mxGeometry x="40" y="550" width="120" height="60" as="geometry" />
        </mxCell>
        <mxCell id="hZePbDuDjzv67LmMwOUX-50" value="여자" style="rounded=0;whiteSpace=wrap;html=1;" vertex="1" parent="1">
          <mxGeometry x="410" y="550" width="120" height="60" as="geometry" />
        </mxCell>
        <mxCell id="hZePbDuDjzv67LmMwOUX-51" style="edgeStyle=orthogonalEdgeStyle;rounded=0;orthogonalLoop=1;jettySize=auto;html=1;entryX=0;entryY=0.5;entryDx=0;entryDy=0;endArrow=none;endFill=0;" edge="1" parent="1" source="hZePbDuDjzv67LmMwOUX-52" target="hZePbDuDjzv67LmMwOUX-50">
          <mxGeometry relative="1" as="geometry" />
        </mxCell>
        <mxCell id="hZePbDuDjzv67LmMwOUX-52" value="결혼" style="rhombus;whiteSpace=wrap;html=1;" vertex="1" parent="1">
          <mxGeometry x="250" y="540" width="80" height="80" as="geometry" />
        </mxCell>
        <mxCell id="hZePbDuDjzv67LmMwOUX-53" value="1" style="text;html=1;align=center;verticalAlign=middle;resizable=0;points=[];autosize=1;strokeColor=none;fillColor=none;" vertex="1" parent="1">
          <mxGeometry x="165" y="548" width="30" height="30" as="geometry" />
        </mxCell>
        <mxCell id="hZePbDuDjzv67LmMwOUX-54" value="1" style="text;html=1;align=center;verticalAlign=middle;resizable=0;points=[];autosize=1;strokeColor=none;fillColor=none;" vertex="1" parent="1">
          <mxGeometry x="230" y="550" width="30" height="30" as="geometry" />
        </mxCell>
        <mxCell id="hZePbDuDjzv67LmMwOUX-55" value="1" style="text;html=1;align=center;verticalAlign=middle;resizable=0;points=[];autosize=1;strokeColor=none;fillColor=none;" vertex="1" parent="1">
          <mxGeometry x="320" y="548" width="30" height="30" as="geometry" />
        </mxCell>
        <mxCell id="hZePbDuDjzv67LmMwOUX-56" value="1" style="text;html=1;align=center;verticalAlign=middle;resizable=0;points=[];autosize=1;strokeColor=none;fillColor=none;" vertex="1" parent="1">
          <mxGeometry x="380" y="550" width="30" height="30" as="geometry" />
        </mxCell>
        <mxCell id="hZePbDuDjzv67LmMwOUX-109" style="edgeStyle=orthogonalEdgeStyle;rounded=0;orthogonalLoop=1;jettySize=auto;html=1;entryX=0;entryY=0.5;entryDx=0;entryDy=0;endArrow=none;endFill=0;" edge="1" parent="1" source="hZePbDuDjzv67LmMwOUX-110" target="hZePbDuDjzv67LmMwOUX-113">
          <mxGeometry relative="1" as="geometry" />
        </mxCell>
        <mxCell id="hZePbDuDjzv67LmMwOUX-110" value="아빠" style="rounded=0;whiteSpace=wrap;html=1;" vertex="1" parent="1">
          <mxGeometry x="40" y="680" width="120" height="60" as="geometry" />
        </mxCell>
        <mxCell id="hZePbDuDjzv67LmMwOUX-111" value="엄마" style="rounded=0;whiteSpace=wrap;html=1;" vertex="1" parent="1">
          <mxGeometry x="410" y="680" width="120" height="60" as="geometry" />
        </mxCell>
        <mxCell id="hZePbDuDjzv67LmMwOUX-112" style="edgeStyle=orthogonalEdgeStyle;rounded=0;orthogonalLoop=1;jettySize=auto;html=1;entryX=0;entryY=0.5;entryDx=0;entryDy=0;endArrow=none;endFill=0;" edge="1" parent="1" source="hZePbDuDjzv67LmMwOUX-113" target="hZePbDuDjzv67LmMwOUX-111">
          <mxGeometry relative="1" as="geometry" />
        </mxCell>
        <mxCell id="hZePbDuDjzv67LmMwOUX-113" value="부부" style="rhombus;whiteSpace=wrap;html=1;" vertex="1" parent="1">
          <mxGeometry x="250" y="670" width="80" height="80" as="geometry" />
        </mxCell>
        <mxCell id="hZePbDuDjzv67LmMwOUX-114" value="1" style="text;html=1;align=center;verticalAlign=middle;resizable=0;points=[];autosize=1;strokeColor=none;fillColor=none;" vertex="1" parent="1">
          <mxGeometry x="165" y="678" width="30" height="30" as="geometry" />
        </mxCell>
        <mxCell id="hZePbDuDjzv67LmMwOUX-115" value="1" style="text;html=1;align=center;verticalAlign=middle;resizable=0;points=[];autosize=1;strokeColor=none;fillColor=none;" vertex="1" parent="1">
          <mxGeometry x="230" y="680" width="30" height="30" as="geometry" />
        </mxCell>
        <mxCell id="hZePbDuDjzv67LmMwOUX-116" value="1" style="text;html=1;align=center;verticalAlign=middle;resizable=0;points=[];autosize=1;strokeColor=none;fillColor=none;" vertex="1" parent="1">
          <mxGeometry x="320" y="678" width="30" height="30" as="geometry" />
        </mxCell>
        <mxCell id="hZePbDuDjzv67LmMwOUX-117" value="1" style="text;html=1;align=center;verticalAlign=middle;resizable=0;points=[];autosize=1;strokeColor=none;fillColor=none;" vertex="1" parent="1">
          <mxGeometry x="380" y="680" width="30" height="30" as="geometry" />
        </mxCell>
        <mxCell id="hZePbDuDjzv67LmMwOUX-118" style="edgeStyle=orthogonalEdgeStyle;rounded=0;orthogonalLoop=1;jettySize=auto;html=1;entryX=0;entryY=0.5;entryDx=0;entryDy=0;endArrow=none;endFill=0;" edge="1" parent="1" source="hZePbDuDjzv67LmMwOUX-119" target="hZePbDuDjzv67LmMwOUX-122">
          <mxGeometry relative="1" as="geometry" />
        </mxCell>
        <mxCell id="hZePbDuDjzv67LmMwOUX-119" value="사람" style="rounded=0;whiteSpace=wrap;html=1;" vertex="1" parent="1">
          <mxGeometry x="40" y="790" width="120" height="60" as="geometry" />
        </mxCell>
        <mxCell id="hZePbDuDjzv67LmMwOUX-120" value="지문" style="rounded=0;whiteSpace=wrap;html=1;" vertex="1" parent="1">
          <mxGeometry x="410" y="790" width="120" height="60" as="geometry" />
        </mxCell>
        <mxCell id="hZePbDuDjzv67LmMwOUX-121" style="edgeStyle=orthogonalEdgeStyle;rounded=0;orthogonalLoop=1;jettySize=auto;html=1;entryX=0;entryY=0.5;entryDx=0;entryDy=0;endArrow=none;endFill=0;" edge="1" parent="1" source="hZePbDuDjzv67LmMwOUX-122" target="hZePbDuDjzv67LmMwOUX-120">
          <mxGeometry relative="1" as="geometry" />
        </mxCell>
        <mxCell id="hZePbDuDjzv67LmMwOUX-122" value="소유" style="rhombus;whiteSpace=wrap;html=1;" vertex="1" parent="1">
          <mxGeometry x="250" y="780" width="80" height="80" as="geometry" />
        </mxCell>
        <mxCell id="hZePbDuDjzv67LmMwOUX-123" value="1" style="text;html=1;align=center;verticalAlign=middle;resizable=0;points=[];autosize=1;strokeColor=none;fillColor=none;" vertex="1" parent="1">
          <mxGeometry x="165" y="788" width="30" height="30" as="geometry" />
        </mxCell>
        <mxCell id="hZePbDuDjzv67LmMwOUX-124" value="1" style="text;html=1;align=center;verticalAlign=middle;resizable=0;points=[];autosize=1;strokeColor=none;fillColor=none;" vertex="1" parent="1">
          <mxGeometry x="230" y="790" width="30" height="30" as="geometry" />
        </mxCell>
        <mxCell id="hZePbDuDjzv67LmMwOUX-125" value="1" style="text;html=1;align=center;verticalAlign=middle;resizable=0;points=[];autosize=1;strokeColor=none;fillColor=none;" vertex="1" parent="1">
          <mxGeometry x="320" y="788" width="30" height="30" as="geometry" />
        </mxCell>
        <mxCell id="hZePbDuDjzv67LmMwOUX-126" value="1" style="text;html=1;align=center;verticalAlign=middle;resizable=0;points=[];autosize=1;strokeColor=none;fillColor=none;" vertex="1" parent="1">
          <mxGeometry x="380" y="790" width="30" height="30" as="geometry" />
        </mxCell>
        <mxCell id="hZePbDuDjzv67LmMwOUX-127" value="주민번호" style="ellipse;whiteSpace=wrap;html=1;" vertex="1" parent="1">
          <mxGeometry x="30" y="860" width="60" height="30" as="geometry" />
        </mxCell>
        <mxCell id="hZePbDuDjzv67LmMwOUX-130" value="이름" style="ellipse;whiteSpace=wrap;html=1;" vertex="1" parent="1">
          <mxGeometry x="100" y="860" width="60" height="30" as="geometry" />
        </mxCell>
        <mxCell id="hZePbDuDjzv67LmMwOUX-131" value="지문ID" style="ellipse;whiteSpace=wrap;html=1;" vertex="1" parent="1">
          <mxGeometry x="385" y="870" width="60" height="30" as="geometry" />
        </mxCell>
        <mxCell id="hZePbDuDjzv67LmMwOUX-132" value="엄지&lt;br&gt;이미지" style="ellipse;whiteSpace=wrap;html=1;" vertex="1" parent="1">
          <mxGeometry x="445" y="870" width="60" height="30" as="geometry" />
        </mxCell>
        <mxCell id="hZePbDuDjzv67LmMwOUX-133" value="검지&lt;br&gt;이미지" style="ellipse;whiteSpace=wrap;html=1;" vertex="1" parent="1">
          <mxGeometry x="505" y="870" width="60" height="30" as="geometry" />
        </mxCell>
        <mxCell id="hZePbDuDjzv67LmMwOUX-135" value="1:N" style="text;html=1;align=center;verticalAlign=middle;resizable=0;points=[];autosize=1;strokeColor=none;fillColor=none;" vertex="1" parent="1">
          <mxGeometry x="130" y="958" width="40" height="30" as="geometry" />
        </mxCell>
        <mxCell id="hZePbDuDjzv67LmMwOUX-136" value="&lt;u&gt;사번&lt;br&gt;(PK)&lt;br&gt;&lt;/u&gt;" style="ellipse;whiteSpace=wrap;html=1;" vertex="1" parent="1">
          <mxGeometry x="-30" y="1100" width="60" height="40" as="geometry" />
        </mxCell>
        <mxCell id="hZePbDuDjzv67LmMwOUX-137" value="이름" style="ellipse;whiteSpace=wrap;html=1;" vertex="1" parent="1">
          <mxGeometry x="90" y="1100" width="60" height="40" as="geometry" />
        </mxCell>
        <mxCell id="hZePbDuDjzv67LmMwOUX-138" value="연락처" style="ellipse;whiteSpace=wrap;html=1;" vertex="1" parent="1">
          <mxGeometry x="150" y="1100" width="60" height="40" as="geometry" />
        </mxCell>
        <mxCell id="hZePbDuDjzv67LmMwOUX-140" value="&lt;u&gt;부서ID&lt;/u&gt;" style="ellipse;whiteSpace=wrap;html=1;" vertex="1" parent="1">
          <mxGeometry x="400" y="1100" width="60" height="40" as="geometry" />
        </mxCell>
        <mxCell id="hZePbDuDjzv67LmMwOUX-141" value="인원" style="ellipse;whiteSpace=wrap;html=1;" vertex="1" parent="1">
          <mxGeometry x="520" y="1100" width="60" height="40" as="geometry" />
        </mxCell>
        <mxCell id="hZePbDuDjzv67LmMwOUX-143" value="부서명" style="ellipse;whiteSpace=wrap;html=1;" vertex="1" parent="1">
          <mxGeometry x="460" y="1100" width="60" height="40" as="geometry" />
        </mxCell>
        <mxCell id="hZePbDuDjzv67LmMwOUX-144" value="부서ID&lt;br&gt;(FK)" style="ellipse;whiteSpace=wrap;html=1;" vertex="1" parent="1">
          <mxGeometry x="30" y="1100" width="60" height="40" as="geometry" />
        </mxCell>
        <mxCell id="hZePbDuDjzv67LmMwOUX-197" value="" style="edgeStyle=orthogonalEdgeStyle;rounded=0;orthogonalLoop=1;jettySize=auto;html=1;startArrow=ERmany;startFill=0;endArrow=ERone;endFill=0;" edge="1" parent="1" source="hZePbDuDjzv67LmMwOUX-145" target="hZePbDuDjzv67LmMwOUX-184">
          <mxGeometry relative="1" as="geometry" />
        </mxCell>
        <mxCell id="hZePbDuDjzv67LmMwOUX-145" value="직원" style="shape=table;startSize=30;container=1;collapsible=1;childLayout=tableLayout;fixedRows=1;rowLines=0;fontStyle=1;align=center;resizeLast=1;html=1;" vertex="1" parent="1">
          <mxGeometry x="600" y="1010" width="180" height="180" as="geometry" />
        </mxCell>
        <mxCell id="hZePbDuDjzv67LmMwOUX-146" value="" style="shape=tableRow;horizontal=0;startSize=0;swimlaneHead=0;swimlaneBody=0;fillColor=none;collapsible=0;dropTarget=0;points=[[0,0.5],[1,0.5]];portConstraint=eastwest;top=0;left=0;right=0;bottom=1;" vertex="1" parent="hZePbDuDjzv67LmMwOUX-145">
          <mxGeometry y="30" width="180" height="30" as="geometry" />
        </mxCell>
        <mxCell id="hZePbDuDjzv67LmMwOUX-147" value="PK" style="shape=partialRectangle;connectable=0;fillColor=none;top=0;left=0;bottom=0;right=0;fontStyle=1;overflow=hidden;whiteSpace=wrap;html=1;" vertex="1" parent="hZePbDuDjzv67LmMwOUX-146">
          <mxGeometry width="30" height="30" as="geometry">
            <mxRectangle width="30" height="30" as="alternateBounds" />
          </mxGeometry>
        </mxCell>
        <mxCell id="hZePbDuDjzv67LmMwOUX-148" value="사번" style="shape=partialRectangle;connectable=0;fillColor=none;top=0;left=0;bottom=0;right=0;align=left;spacingLeft=6;fontStyle=5;overflow=hidden;whiteSpace=wrap;html=1;" vertex="1" parent="hZePbDuDjzv67LmMwOUX-146">
          <mxGeometry x="30" width="150" height="30" as="geometry">
            <mxRectangle width="150" height="30" as="alternateBounds" />
          </mxGeometry>
        </mxCell>
        <mxCell id="hZePbDuDjzv67LmMwOUX-200" value="" style="shape=tableRow;horizontal=0;startSize=0;swimlaneHead=0;swimlaneBody=0;fillColor=none;collapsible=0;dropTarget=0;points=[[0,0.5],[1,0.5]];portConstraint=eastwest;top=0;left=0;right=0;bottom=1;" vertex="1" parent="hZePbDuDjzv67LmMwOUX-145">
          <mxGeometry y="60" width="180" height="30" as="geometry" />
        </mxCell>
        <mxCell id="hZePbDuDjzv67LmMwOUX-201" value="FK" style="shape=partialRectangle;connectable=0;fillColor=none;top=0;left=0;bottom=0;right=0;fontStyle=1;overflow=hidden;whiteSpace=wrap;html=1;" vertex="1" parent="hZePbDuDjzv67LmMwOUX-200">
          <mxGeometry width="30" height="30" as="geometry">
            <mxRectangle width="30" height="30" as="alternateBounds" />
          </mxGeometry>
        </mxCell>
        <mxCell id="hZePbDuDjzv67LmMwOUX-202" value="부서ID" style="shape=partialRectangle;connectable=0;fillColor=none;top=0;left=0;bottom=0;right=0;align=left;spacingLeft=6;fontStyle=5;overflow=hidden;whiteSpace=wrap;html=1;" vertex="1" parent="hZePbDuDjzv67LmMwOUX-200">
          <mxGeometry x="30" width="150" height="30" as="geometry">
            <mxRectangle width="150" height="30" as="alternateBounds" />
          </mxGeometry>
        </mxCell>
        <mxCell id="hZePbDuDjzv67LmMwOUX-149" value="" style="shape=tableRow;horizontal=0;startSize=0;swimlaneHead=0;swimlaneBody=0;fillColor=none;collapsible=0;dropTarget=0;points=[[0,0.5],[1,0.5]];portConstraint=eastwest;top=0;left=0;right=0;bottom=0;" vertex="1" parent="hZePbDuDjzv67LmMwOUX-145">
          <mxGeometry y="90" width="180" height="30" as="geometry" />
        </mxCell>
        <mxCell id="hZePbDuDjzv67LmMwOUX-150" value="" style="shape=partialRectangle;connectable=0;fillColor=none;top=0;left=0;bottom=0;right=0;editable=1;overflow=hidden;whiteSpace=wrap;html=1;" vertex="1" parent="hZePbDuDjzv67LmMwOUX-149">
          <mxGeometry width="30" height="30" as="geometry">
            <mxRectangle width="30" height="30" as="alternateBounds" />
          </mxGeometry>
        </mxCell>
        <mxCell id="hZePbDuDjzv67LmMwOUX-151" value="이름&lt;span style=&quot;white-space: pre;&quot;&gt;&#x9;&lt;/span&gt;" style="shape=partialRectangle;connectable=0;fillColor=none;top=0;left=0;bottom=0;right=0;align=left;spacingLeft=6;overflow=hidden;whiteSpace=wrap;html=1;" vertex="1" parent="hZePbDuDjzv67LmMwOUX-149">
          <mxGeometry x="30" width="150" height="30" as="geometry">
            <mxRectangle width="150" height="30" as="alternateBounds" />
          </mxGeometry>
        </mxCell>
        <mxCell id="hZePbDuDjzv67LmMwOUX-158" value="" style="shape=tableRow;horizontal=0;startSize=0;swimlaneHead=0;swimlaneBody=0;fillColor=none;collapsible=0;dropTarget=0;points=[[0,0.5],[1,0.5]];portConstraint=eastwest;top=0;left=0;right=0;bottom=0;" vertex="1" parent="hZePbDuDjzv67LmMwOUX-145">
          <mxGeometry y="120" width="180" height="30" as="geometry" />
        </mxCell>
        <mxCell id="hZePbDuDjzv67LmMwOUX-159" value="" style="shape=partialRectangle;connectable=0;fillColor=none;top=0;left=0;bottom=0;right=0;editable=1;overflow=hidden;whiteSpace=wrap;html=1;" vertex="1" parent="hZePbDuDjzv67LmMwOUX-158">
          <mxGeometry width="30" height="30" as="geometry">
            <mxRectangle width="30" height="30" as="alternateBounds" />
          </mxGeometry>
        </mxCell>
        <mxCell id="hZePbDuDjzv67LmMwOUX-160" value="직책" style="shape=partialRectangle;connectable=0;fillColor=none;top=0;left=0;bottom=0;right=0;align=left;spacingLeft=6;overflow=hidden;whiteSpace=wrap;html=1;" vertex="1" parent="hZePbDuDjzv67LmMwOUX-158">
          <mxGeometry x="30" width="150" height="30" as="geometry">
            <mxRectangle width="150" height="30" as="alternateBounds" />
          </mxGeometry>
        </mxCell>
        <mxCell id="hZePbDuDjzv67LmMwOUX-152" value="" style="shape=tableRow;horizontal=0;startSize=0;swimlaneHead=0;swimlaneBody=0;fillColor=none;collapsible=0;dropTarget=0;points=[[0,0.5],[1,0.5]];portConstraint=eastwest;top=0;left=0;right=0;bottom=0;" vertex="1" parent="hZePbDuDjzv67LmMwOUX-145">
          <mxGeometry y="150" width="180" height="30" as="geometry" />
        </mxCell>
        <mxCell id="hZePbDuDjzv67LmMwOUX-153" value="" style="shape=partialRectangle;connectable=0;fillColor=none;top=0;left=0;bottom=0;right=0;editable=1;overflow=hidden;whiteSpace=wrap;html=1;" vertex="1" parent="hZePbDuDjzv67LmMwOUX-152">
          <mxGeometry width="30" height="30" as="geometry">
            <mxRectangle width="30" height="30" as="alternateBounds" />
          </mxGeometry>
        </mxCell>
        <mxCell id="hZePbDuDjzv67LmMwOUX-154" value="연락처" style="shape=partialRectangle;connectable=0;fillColor=none;top=0;left=0;bottom=0;right=0;align=left;spacingLeft=6;overflow=hidden;whiteSpace=wrap;html=1;" vertex="1" parent="hZePbDuDjzv67LmMwOUX-152">
          <mxGeometry x="30" width="150" height="30" as="geometry">
            <mxRectangle width="150" height="30" as="alternateBounds" />
          </mxGeometry>
        </mxCell>
        <mxCell id="hZePbDuDjzv67LmMwOUX-184" value="부서" style="shape=table;startSize=30;container=1;collapsible=1;childLayout=tableLayout;fixedRows=1;rowLines=0;fontStyle=1;align=center;resizeLast=1;html=1;" vertex="1" parent="1">
          <mxGeometry x="860" y="1010" width="180" height="150" as="geometry" />
        </mxCell>
        <mxCell id="hZePbDuDjzv67LmMwOUX-185" value="" style="shape=tableRow;horizontal=0;startSize=0;swimlaneHead=0;swimlaneBody=0;fillColor=none;collapsible=0;dropTarget=0;points=[[0,0.5],[1,0.5]];portConstraint=eastwest;top=0;left=0;right=0;bottom=1;" vertex="1" parent="hZePbDuDjzv67LmMwOUX-184">
          <mxGeometry y="30" width="180" height="30" as="geometry" />
        </mxCell>
        <mxCell id="hZePbDuDjzv67LmMwOUX-186" value="PK" style="shape=partialRectangle;connectable=0;fillColor=none;top=0;left=0;bottom=0;right=0;fontStyle=1;overflow=hidden;whiteSpace=wrap;html=1;" vertex="1" parent="hZePbDuDjzv67LmMwOUX-185">
          <mxGeometry width="30" height="30" as="geometry">
            <mxRectangle width="30" height="30" as="alternateBounds" />
          </mxGeometry>
        </mxCell>
        <mxCell id="hZePbDuDjzv67LmMwOUX-187" value="부서ID" style="shape=partialRectangle;connectable=0;fillColor=none;top=0;left=0;bottom=0;right=0;align=left;spacingLeft=6;fontStyle=5;overflow=hidden;whiteSpace=wrap;html=1;" vertex="1" parent="hZePbDuDjzv67LmMwOUX-185">
          <mxGeometry x="30" width="150" height="30" as="geometry">
            <mxRectangle width="150" height="30" as="alternateBounds" />
          </mxGeometry>
        </mxCell>
        <mxCell id="hZePbDuDjzv67LmMwOUX-188" value="" style="shape=tableRow;horizontal=0;startSize=0;swimlaneHead=0;swimlaneBody=0;fillColor=none;collapsible=0;dropTarget=0;points=[[0,0.5],[1,0.5]];portConstraint=eastwest;top=0;left=0;right=0;bottom=0;" vertex="1" parent="hZePbDuDjzv67LmMwOUX-184">
          <mxGeometry y="60" width="180" height="30" as="geometry" />
        </mxCell>
        <mxCell id="hZePbDuDjzv67LmMwOUX-189" value="" style="shape=partialRectangle;connectable=0;fillColor=none;top=0;left=0;bottom=0;right=0;editable=1;overflow=hidden;whiteSpace=wrap;html=1;" vertex="1" parent="hZePbDuDjzv67LmMwOUX-188">
          <mxGeometry width="30" height="30" as="geometry">
            <mxRectangle width="30" height="30" as="alternateBounds" />
          </mxGeometry>
        </mxCell>
        <mxCell id="hZePbDuDjzv67LmMwOUX-190" value="부서명&lt;span style=&quot;white-space: pre;&quot;&gt;&#x9;&lt;/span&gt;" style="shape=partialRectangle;connectable=0;fillColor=none;top=0;left=0;bottom=0;right=0;align=left;spacingLeft=6;overflow=hidden;whiteSpace=wrap;html=1;" vertex="1" parent="hZePbDuDjzv67LmMwOUX-188">
          <mxGeometry x="30" width="150" height="30" as="geometry">
            <mxRectangle width="150" height="30" as="alternateBounds" />
          </mxGeometry>
        </mxCell>
        <mxCell id="hZePbDuDjzv67LmMwOUX-191" value="" style="shape=tableRow;horizontal=0;startSize=0;swimlaneHead=0;swimlaneBody=0;fillColor=none;collapsible=0;dropTarget=0;points=[[0,0.5],[1,0.5]];portConstraint=eastwest;top=0;left=0;right=0;bottom=0;" vertex="1" parent="hZePbDuDjzv67LmMwOUX-184">
          <mxGeometry y="90" width="180" height="30" as="geometry" />
        </mxCell>
        <mxCell id="hZePbDuDjzv67LmMwOUX-192" value="" style="shape=partialRectangle;connectable=0;fillColor=none;top=0;left=0;bottom=0;right=0;editable=1;overflow=hidden;whiteSpace=wrap;html=1;" vertex="1" parent="hZePbDuDjzv67LmMwOUX-191">
          <mxGeometry width="30" height="30" as="geometry">
            <mxRectangle width="30" height="30" as="alternateBounds" />
          </mxGeometry>
        </mxCell>
        <mxCell id="hZePbDuDjzv67LmMwOUX-193" value="인원" style="shape=partialRectangle;connectable=0;fillColor=none;top=0;left=0;bottom=0;right=0;align=left;spacingLeft=6;overflow=hidden;whiteSpace=wrap;html=1;" vertex="1" parent="hZePbDuDjzv67LmMwOUX-191">
          <mxGeometry x="30" width="150" height="30" as="geometry">
            <mxRectangle width="150" height="30" as="alternateBounds" />
          </mxGeometry>
        </mxCell>
        <mxCell id="hZePbDuDjzv67LmMwOUX-194" value="" style="shape=tableRow;horizontal=0;startSize=0;swimlaneHead=0;swimlaneBody=0;fillColor=none;collapsible=0;dropTarget=0;points=[[0,0.5],[1,0.5]];portConstraint=eastwest;top=0;left=0;right=0;bottom=0;" vertex="1" parent="hZePbDuDjzv67LmMwOUX-184">
          <mxGeometry y="120" width="180" height="30" as="geometry" />
        </mxCell>
        <mxCell id="hZePbDuDjzv67LmMwOUX-195" value="" style="shape=partialRectangle;connectable=0;fillColor=none;top=0;left=0;bottom=0;right=0;editable=1;overflow=hidden;whiteSpace=wrap;html=1;" vertex="1" parent="hZePbDuDjzv67LmMwOUX-194">
          <mxGeometry width="30" height="30" as="geometry">
            <mxRectangle width="30" height="30" as="alternateBounds" />
          </mxGeometry>
        </mxCell>
        <mxCell id="hZePbDuDjzv67LmMwOUX-196" value="연락처" style="shape=partialRectangle;connectable=0;fillColor=none;top=0;left=0;bottom=0;right=0;align=left;spacingLeft=6;overflow=hidden;whiteSpace=wrap;html=1;" vertex="1" parent="hZePbDuDjzv67LmMwOUX-194">
          <mxGeometry x="30" width="150" height="30" as="geometry">
            <mxRectangle width="150" height="30" as="alternateBounds" />
          </mxGeometry>
        </mxCell>
        <mxCell id="hZePbDuDjzv67LmMwOUX-198" value="상위/부모" style="text;html=1;align=center;verticalAlign=middle;resizable=0;points=[];autosize=1;strokeColor=none;fillColor=none;" vertex="1" parent="1">
          <mxGeometry x="860" y="958" width="70" height="30" as="geometry" />
        </mxCell>
        <mxCell id="hZePbDuDjzv67LmMwOUX-199" value="하위/자식" style="text;html=1;align=center;verticalAlign=middle;resizable=0;points=[];autosize=1;strokeColor=none;fillColor=none;" vertex="1" parent="1">
          <mxGeometry x="600" y="958" width="70" height="30" as="geometry" />
        </mxCell>
        <mxCell id="hZePbDuDjzv67LmMwOUX-205" value="모니터" style="rounded=0;whiteSpace=wrap;html=1;" vertex="1" parent="1">
          <mxGeometry x="370" y="2040" width="120" height="60" as="geometry" />
        </mxCell>
        <mxCell id="hZePbDuDjzv67LmMwOUX-206" style="edgeStyle=orthogonalEdgeStyle;rounded=0;orthogonalLoop=1;jettySize=auto;html=1;endArrow=none;endFill=0;" edge="1" parent="1" source="hZePbDuDjzv67LmMwOUX-207" target="hZePbDuDjzv67LmMwOUX-209">
          <mxGeometry relative="1" as="geometry" />
        </mxCell>
        <mxCell id="hZePbDuDjzv67LmMwOUX-207" value="컴퓨터본체" style="rounded=0;whiteSpace=wrap;html=1;" vertex="1" parent="1">
          <mxGeometry y="2040" width="120" height="60" as="geometry" />
        </mxCell>
        <mxCell id="hZePbDuDjzv67LmMwOUX-220" style="edgeStyle=orthogonalEdgeStyle;rounded=0;orthogonalLoop=1;jettySize=auto;html=1;entryX=0;entryY=0.5;entryDx=0;entryDy=0;endArrow=none;endFill=0;" edge="1" parent="1" source="hZePbDuDjzv67LmMwOUX-209" target="hZePbDuDjzv67LmMwOUX-205">
          <mxGeometry relative="1" as="geometry" />
        </mxCell>
        <mxCell id="hZePbDuDjzv67LmMwOUX-209" value="연결" style="rhombus;whiteSpace=wrap;html=1;" vertex="1" parent="1">
          <mxGeometry x="210" y="2030" width="80" height="80" as="geometry" />
        </mxCell>
        <mxCell id="hZePbDuDjzv67LmMwOUX-214" value="본체&lt;br&gt;일려변호&lt;br&gt;PK" style="ellipse;whiteSpace=wrap;html=1;" vertex="1" parent="1">
          <mxGeometry x="-70" y="2110" width="70" height="40" as="geometry" />
        </mxCell>
        <mxCell id="hZePbDuDjzv67LmMwOUX-215" value="본체크기" style="ellipse;whiteSpace=wrap;html=1;" vertex="1" parent="1">
          <mxGeometry y="2110" width="70" height="40" as="geometry" />
        </mxCell>
        <mxCell id="hZePbDuDjzv67LmMwOUX-216" value="본체가격" style="ellipse;whiteSpace=wrap;html=1;" vertex="1" parent="1">
          <mxGeometry x="70" y="2110" width="70" height="40" as="geometry" />
        </mxCell>
        <mxCell id="hZePbDuDjzv67LmMwOUX-217" value="모니터크기" style="ellipse;whiteSpace=wrap;html=1;" vertex="1" parent="1">
          <mxGeometry x="379" y="2110" width="70" height="40" as="geometry" />
        </mxCell>
        <mxCell id="hZePbDuDjzv67LmMwOUX-218" value="모니터ID&lt;br&gt;(PK)" style="ellipse;whiteSpace=wrap;html=1;" vertex="1" parent="1">
          <mxGeometry x="309" y="2110" width="70" height="40" as="geometry" />
        </mxCell>
        <mxCell id="hZePbDuDjzv67LmMwOUX-219" value="모니터가격" style="ellipse;whiteSpace=wrap;html=1;" vertex="1" parent="1">
          <mxGeometry x="450" y="2110" width="70" height="40" as="geometry" />
        </mxCell>
        <mxCell id="hZePbDuDjzv67LmMwOUX-221" value="컴퓨터본체" style="shape=table;startSize=30;container=1;collapsible=1;childLayout=tableLayout;fixedRows=1;rowLines=0;fontStyle=1;align=center;resizeLast=1;html=1;" vertex="1" parent="1">
          <mxGeometry x="560" y="2040" width="180" height="140" as="geometry" />
        </mxCell>
        <mxCell id="hZePbDuDjzv67LmMwOUX-222" value="" style="shape=tableRow;horizontal=0;startSize=0;swimlaneHead=0;swimlaneBody=0;fillColor=none;collapsible=0;dropTarget=0;points=[[0,0.5],[1,0.5]];portConstraint=eastwest;top=0;left=0;right=0;bottom=1;" vertex="1" parent="hZePbDuDjzv67LmMwOUX-221">
          <mxGeometry y="30" width="180" height="20" as="geometry" />
        </mxCell>
        <mxCell id="hZePbDuDjzv67LmMwOUX-223" value="PK" style="shape=partialRectangle;connectable=0;fillColor=none;top=0;left=0;bottom=0;right=0;fontStyle=1;overflow=hidden;whiteSpace=wrap;html=1;" vertex="1" parent="hZePbDuDjzv67LmMwOUX-222">
          <mxGeometry width="30" height="20" as="geometry">
            <mxRectangle width="30" height="20" as="alternateBounds" />
          </mxGeometry>
        </mxCell>
        <mxCell id="hZePbDuDjzv67LmMwOUX-224" value="본체ID" style="shape=partialRectangle;connectable=0;fillColor=none;top=0;left=0;bottom=0;right=0;align=left;spacingLeft=6;fontStyle=5;overflow=hidden;whiteSpace=wrap;html=1;" vertex="1" parent="hZePbDuDjzv67LmMwOUX-222">
          <mxGeometry x="30" width="150" height="20" as="geometry">
            <mxRectangle width="150" height="20" as="alternateBounds" />
          </mxGeometry>
        </mxCell>
        <mxCell id="hZePbDuDjzv67LmMwOUX-225" value="" style="shape=tableRow;horizontal=0;startSize=0;swimlaneHead=0;swimlaneBody=0;fillColor=none;collapsible=0;dropTarget=0;points=[[0,0.5],[1,0.5]];portConstraint=eastwest;top=0;left=0;right=0;bottom=0;" vertex="1" parent="hZePbDuDjzv67LmMwOUX-221">
          <mxGeometry y="50" width="180" height="30" as="geometry" />
        </mxCell>
        <mxCell id="hZePbDuDjzv67LmMwOUX-226" value="" style="shape=partialRectangle;connectable=0;fillColor=none;top=0;left=0;bottom=0;right=0;editable=1;overflow=hidden;whiteSpace=wrap;html=1;" vertex="1" parent="hZePbDuDjzv67LmMwOUX-225">
          <mxGeometry width="30" height="30" as="geometry">
            <mxRectangle width="30" height="30" as="alternateBounds" />
          </mxGeometry>
        </mxCell>
        <mxCell id="hZePbDuDjzv67LmMwOUX-227" value="본체크기" style="shape=partialRectangle;connectable=0;fillColor=none;top=0;left=0;bottom=0;right=0;align=left;spacingLeft=6;overflow=hidden;whiteSpace=wrap;html=1;" vertex="1" parent="hZePbDuDjzv67LmMwOUX-225">
          <mxGeometry x="30" width="150" height="30" as="geometry">
            <mxRectangle width="150" height="30" as="alternateBounds" />
          </mxGeometry>
        </mxCell>
        <mxCell id="hZePbDuDjzv67LmMwOUX-228" value="" style="shape=tableRow;horizontal=0;startSize=0;swimlaneHead=0;swimlaneBody=0;fillColor=none;collapsible=0;dropTarget=0;points=[[0,0.5],[1,0.5]];portConstraint=eastwest;top=0;left=0;right=0;bottom=0;" vertex="1" parent="hZePbDuDjzv67LmMwOUX-221">
          <mxGeometry y="80" width="180" height="30" as="geometry" />
        </mxCell>
        <mxCell id="hZePbDuDjzv67LmMwOUX-229" value="" style="shape=partialRectangle;connectable=0;fillColor=none;top=0;left=0;bottom=0;right=0;editable=1;overflow=hidden;whiteSpace=wrap;html=1;" vertex="1" parent="hZePbDuDjzv67LmMwOUX-228">
          <mxGeometry width="30" height="30" as="geometry">
            <mxRectangle width="30" height="30" as="alternateBounds" />
          </mxGeometry>
        </mxCell>
        <mxCell id="hZePbDuDjzv67LmMwOUX-230" value="본체가격" style="shape=partialRectangle;connectable=0;fillColor=none;top=0;left=0;bottom=0;right=0;align=left;spacingLeft=6;overflow=hidden;whiteSpace=wrap;html=1;" vertex="1" parent="hZePbDuDjzv67LmMwOUX-228">
          <mxGeometry x="30" width="150" height="30" as="geometry">
            <mxRectangle width="150" height="30" as="alternateBounds" />
          </mxGeometry>
        </mxCell>
        <mxCell id="hZePbDuDjzv67LmMwOUX-231" value="" style="shape=tableRow;horizontal=0;startSize=0;swimlaneHead=0;swimlaneBody=0;fillColor=none;collapsible=0;dropTarget=0;points=[[0,0.5],[1,0.5]];portConstraint=eastwest;top=0;left=0;right=0;bottom=0;" vertex="1" parent="hZePbDuDjzv67LmMwOUX-221">
          <mxGeometry y="110" width="180" height="30" as="geometry" />
        </mxCell>
        <mxCell id="hZePbDuDjzv67LmMwOUX-232" value="" style="shape=partialRectangle;connectable=0;fillColor=none;top=0;left=0;bottom=0;right=0;editable=1;overflow=hidden;whiteSpace=wrap;html=1;" vertex="1" parent="hZePbDuDjzv67LmMwOUX-231">
          <mxGeometry width="30" height="30" as="geometry">
            <mxRectangle width="30" height="30" as="alternateBounds" />
          </mxGeometry>
        </mxCell>
        <mxCell id="hZePbDuDjzv67LmMwOUX-233" value="Row 3" style="shape=partialRectangle;connectable=0;fillColor=none;top=0;left=0;bottom=0;right=0;align=left;spacingLeft=6;overflow=hidden;whiteSpace=wrap;html=1;" vertex="1" parent="hZePbDuDjzv67LmMwOUX-231">
          <mxGeometry x="30" width="150" height="30" as="geometry">
            <mxRectangle width="150" height="30" as="alternateBounds" />
          </mxGeometry>
        </mxCell>
        <mxCell id="hZePbDuDjzv67LmMwOUX-234" value="모니터" style="shape=table;startSize=30;container=1;collapsible=1;childLayout=tableLayout;fixedRows=1;rowLines=0;fontStyle=1;align=center;resizeLast=1;html=1;" vertex="1" parent="1">
          <mxGeometry x="820" y="2040" width="180" height="181" as="geometry" />
        </mxCell>
        <mxCell id="hZePbDuDjzv67LmMwOUX-235" value="" style="shape=tableRow;horizontal=0;startSize=0;swimlaneHead=0;swimlaneBody=0;fillColor=none;collapsible=0;dropTarget=0;points=[[0,0.5],[1,0.5]];portConstraint=eastwest;top=0;left=0;right=0;bottom=1;" vertex="1" parent="hZePbDuDjzv67LmMwOUX-234">
          <mxGeometry y="30" width="180" height="30" as="geometry" />
        </mxCell>
        <mxCell id="hZePbDuDjzv67LmMwOUX-236" value="PK" style="shape=partialRectangle;connectable=0;fillColor=none;top=0;left=0;bottom=0;right=0;fontStyle=1;overflow=hidden;whiteSpace=wrap;html=1;" vertex="1" parent="hZePbDuDjzv67LmMwOUX-235">
          <mxGeometry width="30" height="30" as="geometry">
            <mxRectangle width="30" height="30" as="alternateBounds" />
          </mxGeometry>
        </mxCell>
        <mxCell id="hZePbDuDjzv67LmMwOUX-237" value="모니터ID" style="shape=partialRectangle;connectable=0;fillColor=none;top=0;left=0;bottom=0;right=0;align=left;spacingLeft=6;fontStyle=5;overflow=hidden;whiteSpace=wrap;html=1;" vertex="1" parent="hZePbDuDjzv67LmMwOUX-235">
          <mxGeometry x="30" width="150" height="30" as="geometry">
            <mxRectangle width="150" height="30" as="alternateBounds" />
          </mxGeometry>
        </mxCell>
        <mxCell id="hZePbDuDjzv67LmMwOUX-272" value="" style="shape=tableRow;horizontal=0;startSize=0;swimlaneHead=0;swimlaneBody=0;fillColor=none;collapsible=0;dropTarget=0;points=[[0,0.5],[1,0.5]];portConstraint=eastwest;top=0;left=0;right=0;bottom=1;" vertex="1" parent="hZePbDuDjzv67LmMwOUX-234">
          <mxGeometry y="60" width="180" height="30" as="geometry" />
        </mxCell>
        <mxCell id="hZePbDuDjzv67LmMwOUX-273" value="FK" style="shape=partialRectangle;connectable=0;fillColor=none;top=0;left=0;bottom=0;right=0;fontStyle=1;overflow=hidden;whiteSpace=wrap;html=1;" vertex="1" parent="hZePbDuDjzv67LmMwOUX-272">
          <mxGeometry width="30" height="30" as="geometry">
            <mxRectangle width="30" height="30" as="alternateBounds" />
          </mxGeometry>
        </mxCell>
        <mxCell id="hZePbDuDjzv67LmMwOUX-274" value="본체 일련번호" style="shape=partialRectangle;connectable=0;fillColor=none;top=0;left=0;bottom=0;right=0;align=left;spacingLeft=6;fontStyle=5;overflow=hidden;whiteSpace=wrap;html=1;" vertex="1" parent="hZePbDuDjzv67LmMwOUX-272">
          <mxGeometry x="30" width="150" height="30" as="geometry">
            <mxRectangle width="150" height="30" as="alternateBounds" />
          </mxGeometry>
        </mxCell>
        <mxCell id="hZePbDuDjzv67LmMwOUX-238" value="" style="shape=tableRow;horizontal=0;startSize=0;swimlaneHead=0;swimlaneBody=0;fillColor=none;collapsible=0;dropTarget=0;points=[[0,0.5],[1,0.5]];portConstraint=eastwest;top=0;left=0;right=0;bottom=0;" vertex="1" parent="hZePbDuDjzv67LmMwOUX-234">
          <mxGeometry y="90" width="180" height="30" as="geometry" />
        </mxCell>
        <mxCell id="hZePbDuDjzv67LmMwOUX-239" value="" style="shape=partialRectangle;connectable=0;fillColor=none;top=0;left=0;bottom=0;right=0;editable=1;overflow=hidden;whiteSpace=wrap;html=1;" vertex="1" parent="hZePbDuDjzv67LmMwOUX-238">
          <mxGeometry width="30" height="30" as="geometry">
            <mxRectangle width="30" height="30" as="alternateBounds" />
          </mxGeometry>
        </mxCell>
        <mxCell id="hZePbDuDjzv67LmMwOUX-240" value="모니터크기" style="shape=partialRectangle;connectable=0;fillColor=none;top=0;left=0;bottom=0;right=0;align=left;spacingLeft=6;overflow=hidden;whiteSpace=wrap;html=1;" vertex="1" parent="hZePbDuDjzv67LmMwOUX-238">
          <mxGeometry x="30" width="150" height="30" as="geometry">
            <mxRectangle width="150" height="30" as="alternateBounds" />
          </mxGeometry>
        </mxCell>
        <mxCell id="hZePbDuDjzv67LmMwOUX-241" value="" style="shape=tableRow;horizontal=0;startSize=0;swimlaneHead=0;swimlaneBody=0;fillColor=none;collapsible=0;dropTarget=0;points=[[0,0.5],[1,0.5]];portConstraint=eastwest;top=0;left=0;right=0;bottom=0;" vertex="1" parent="hZePbDuDjzv67LmMwOUX-234">
          <mxGeometry y="120" width="180" height="30" as="geometry" />
        </mxCell>
        <mxCell id="hZePbDuDjzv67LmMwOUX-242" value="" style="shape=partialRectangle;connectable=0;fillColor=none;top=0;left=0;bottom=0;right=0;editable=1;overflow=hidden;whiteSpace=wrap;html=1;" vertex="1" parent="hZePbDuDjzv67LmMwOUX-241">
          <mxGeometry width="30" height="30" as="geometry">
            <mxRectangle width="30" height="30" as="alternateBounds" />
          </mxGeometry>
        </mxCell>
        <mxCell id="hZePbDuDjzv67LmMwOUX-243" value="모니터가격" style="shape=partialRectangle;connectable=0;fillColor=none;top=0;left=0;bottom=0;right=0;align=left;spacingLeft=6;overflow=hidden;whiteSpace=wrap;html=1;" vertex="1" parent="hZePbDuDjzv67LmMwOUX-241">
          <mxGeometry x="30" width="150" height="30" as="geometry">
            <mxRectangle width="150" height="30" as="alternateBounds" />
          </mxGeometry>
        </mxCell>
        <mxCell id="hZePbDuDjzv67LmMwOUX-244" value="" style="shape=tableRow;horizontal=0;startSize=0;swimlaneHead=0;swimlaneBody=0;fillColor=none;collapsible=0;dropTarget=0;points=[[0,0.5],[1,0.5]];portConstraint=eastwest;top=0;left=0;right=0;bottom=0;" vertex="1" parent="hZePbDuDjzv67LmMwOUX-234">
          <mxGeometry y="150" width="180" height="30" as="geometry" />
        </mxCell>
        <mxCell id="hZePbDuDjzv67LmMwOUX-245" value="" style="shape=partialRectangle;connectable=0;fillColor=none;top=0;left=0;bottom=0;right=0;editable=1;overflow=hidden;whiteSpace=wrap;html=1;" vertex="1" parent="hZePbDuDjzv67LmMwOUX-244">
          <mxGeometry width="30" height="30" as="geometry">
            <mxRectangle width="30" height="30" as="alternateBounds" />
          </mxGeometry>
        </mxCell>
        <mxCell id="hZePbDuDjzv67LmMwOUX-246" value="Row 3" style="shape=partialRectangle;connectable=0;fillColor=none;top=0;left=0;bottom=0;right=0;align=left;spacingLeft=6;overflow=hidden;whiteSpace=wrap;html=1;" vertex="1" parent="hZePbDuDjzv67LmMwOUX-244">
          <mxGeometry x="30" width="150" height="30" as="geometry">
            <mxRectangle width="150" height="30" as="alternateBounds" />
          </mxGeometry>
        </mxCell>
        <mxCell id="hZePbDuDjzv67LmMwOUX-252" style="edgeStyle=orthogonalEdgeStyle;rounded=0;orthogonalLoop=1;jettySize=auto;html=1;endArrow=none;endFill=0;" edge="1" parent="1">
          <mxGeometry relative="1" as="geometry">
            <mxPoint x="310" y="1280" as="sourcePoint" />
            <mxPoint x="400" y="1280" as="targetPoint" />
          </mxGeometry>
        </mxCell>
        <mxCell id="hZePbDuDjzv67LmMwOUX-275" style="edgeStyle=orthogonalEdgeStyle;rounded=0;orthogonalLoop=1;jettySize=auto;html=1;entryX=0;entryY=0.5;entryDx=0;entryDy=0;endArrow=ERoneToMany;endFill=0;startArrow=ERone;startFill=0;" edge="1" parent="1">
          <mxGeometry relative="1" as="geometry">
            <mxPoint x="740" y="2120" as="sourcePoint" />
            <mxPoint x="820" y="2120" as="targetPoint" />
          </mxGeometry>
        </mxCell>
        <mxCell id="hZePbDuDjzv67LmMwOUX-276" value="N:M 관계에서는 관계형 테이블을 만드는 것을 기본으로 한다." style="text;html=1;align=center;verticalAlign=middle;resizable=0;points=[];autosize=1;strokeColor=none;fillColor=none;" vertex="1" parent="1">
          <mxGeometry x="-20" y="2780" width="350" height="30" as="geometry" />
        </mxCell>
        <mxCell id="hZePbDuDjzv67LmMwOUX-278" value="L_ID&lt;br&gt;(PK)" style="ellipse;whiteSpace=wrap;html=1;" vertex="1" parent="1">
          <mxGeometry x="-230" y="2928" width="65" height="50" as="geometry" />
        </mxCell>
        <mxCell id="hZePbDuDjzv67LmMwOUX-320" value="강의명" style="ellipse;whiteSpace=wrap;html=1;" vertex="1" parent="1">
          <mxGeometry x="-40" y="2933" width="50" height="40" as="geometry" />
        </mxCell>
        <mxCell id="hZePbDuDjzv67LmMwOUX-321" value="강의장&lt;br&gt;명" style="ellipse;whiteSpace=wrap;html=1;" vertex="1" parent="1">
          <mxGeometry x="10" y="2933" width="60" height="40" as="geometry" />
        </mxCell>
        <mxCell id="hZePbDuDjzv67LmMwOUX-322" value="강사명" style="ellipse;whiteSpace=wrap;html=1;" vertex="1" parent="1">
          <mxGeometry x="-160" y="2933" width="57.5" height="40" as="geometry" />
        </mxCell>
        <mxCell id="hZePbDuDjzv67LmMwOUX-323" value="강의시간" style="ellipse;whiteSpace=wrap;html=1;" vertex="1" parent="1">
          <mxGeometry x="-102.5" y="2938" width="60" height="30" as="geometry" />
        </mxCell>
        <mxCell id="hZePbDuDjzv67LmMwOUX-324" value="1" style="text;html=1;align=center;verticalAlign=middle;resizable=0;points=[];autosize=1;strokeColor=none;fillColor=none;" vertex="1" parent="1">
          <mxGeometry x="67.5" y="2853" width="30" height="30" as="geometry" />
        </mxCell>
        <mxCell id="hZePbDuDjzv67LmMwOUX-325" value="n" style="text;html=1;align=center;verticalAlign=middle;resizable=0;points=[];autosize=1;strokeColor=none;fillColor=none;" vertex="1" parent="1">
          <mxGeometry x="142.5" y="2851" width="30" height="30" as="geometry" />
        </mxCell>
        <mxCell id="hZePbDuDjzv67LmMwOUX-326" value="m" style="text;html=1;align=center;verticalAlign=middle;resizable=0;points=[];autosize=1;strokeColor=none;fillColor=none;" vertex="1" parent="1">
          <mxGeometry x="237.5" y="2853" width="30" height="30" as="geometry" />
        </mxCell>
        <mxCell id="hZePbDuDjzv67LmMwOUX-327" value="1" style="text;html=1;align=center;verticalAlign=middle;resizable=0;points=[];autosize=1;strokeColor=none;fillColor=none;" vertex="1" parent="1">
          <mxGeometry x="292.5" y="2853" width="30" height="30" as="geometry" />
        </mxCell>
        <mxCell id="hZePbDuDjzv67LmMwOUX-328" value="S_ID&lt;br&gt;(PK)" style="ellipse;whiteSpace=wrap;html=1;" vertex="1" parent="1">
          <mxGeometry x="358.87" y="2938" width="62.5" height="40" as="geometry" />
        </mxCell>
        <mxCell id="hZePbDuDjzv67LmMwOUX-333" value="연락처" style="ellipse;whiteSpace=wrap;html=1;" vertex="1" parent="1">
          <mxGeometry x="548.62" y="2938" width="62.5" height="40" as="geometry" />
        </mxCell>
        <mxCell id="hZePbDuDjzv67LmMwOUX-334" value="이름" style="ellipse;whiteSpace=wrap;html=1;" vertex="1" parent="1">
          <mxGeometry x="421.37" y="2938" width="62.5" height="40" as="geometry" />
        </mxCell>
        <mxCell id="hZePbDuDjzv67LmMwOUX-335" value="나이" style="ellipse;whiteSpace=wrap;html=1;" vertex="1" parent="1">
          <mxGeometry x="486.12" y="2938" width="62.5" height="40" as="geometry" />
        </mxCell>
        <mxCell id="hZePbDuDjzv67LmMwOUX-337" value="S_ID&lt;br&gt;(FK)" style="ellipse;whiteSpace=wrap;html=1;" vertex="1" parent="1">
          <mxGeometry x="157.5" y="2923" width="57.5" height="40" as="geometry" />
        </mxCell>
        <mxCell id="hZePbDuDjzv67LmMwOUX-338" value="L_ID&lt;br&gt;(FK)" style="ellipse;whiteSpace=wrap;html=1;" vertex="1" parent="1">
          <mxGeometry x="217.5" y="2923" width="57.5" height="40" as="geometry" />
        </mxCell>
        <mxCell id="hZePbDuDjzv67LmMwOUX-339" value="외래키열" style="text;html=1;align=center;verticalAlign=middle;resizable=0;points=[];autosize=1;strokeColor=none;fillColor=none;" vertex="1" parent="1">
          <mxGeometry x="151.25" y="3003" width="70" height="30" as="geometry" />
        </mxCell>
        <mxCell id="hZePbDuDjzv67LmMwOUX-340" value="R_ID&lt;br&gt;(PK)" style="ellipse;whiteSpace=wrap;html=1;" vertex="1" parent="1">
          <mxGeometry x="100" y="2923" width="57.5" height="40" as="geometry" />
        </mxCell>
        <mxCell id="hZePbDuDjzv67LmMwOUX-341" value="R_Date" style="ellipse;whiteSpace=wrap;html=1;" vertex="1" parent="1">
          <mxGeometry x="157.5" y="2963" width="57.5" height="40" as="geometry" />
        </mxCell>
        <mxCell id="hZePbDuDjzv67LmMwOUX-342" value="누가 무엇을?" style="text;html=1;align=center;verticalAlign=middle;resizable=0;points=[];autosize=1;strokeColor=none;fillColor=none;" vertex="1" parent="1">
          <mxGeometry x="225" y="2893" width="90" height="30" as="geometry" />
        </mxCell>
        <mxCell id="hZePbDuDjzv67LmMwOUX-372" value="" style="edgeStyle=orthogonalEdgeStyle;rounded=0;orthogonalLoop=1;jettySize=auto;html=1;startArrow=ERone;startFill=0;endArrow=ERmany;endFill=0;" edge="1" parent="1" source="hZePbDuDjzv67LmMwOUX-343" target="hZePbDuDjzv67LmMwOUX-359">
          <mxGeometry relative="1" as="geometry" />
        </mxCell>
        <mxCell id="hZePbDuDjzv67LmMwOUX-343" value="강의" style="shape=table;startSize=30;container=1;collapsible=1;childLayout=tableLayout;fixedRows=1;rowLines=0;fontStyle=1;align=center;resizeLast=1;html=1;" vertex="1" parent="1">
          <mxGeometry x="-192.5" y="3105" width="180" height="180" as="geometry" />
        </mxCell>
        <mxCell id="hZePbDuDjzv67LmMwOUX-344" value="" style="shape=tableRow;horizontal=0;startSize=0;swimlaneHead=0;swimlaneBody=0;fillColor=none;collapsible=0;dropTarget=0;points=[[0,0.5],[1,0.5]];portConstraint=eastwest;top=0;left=0;right=0;bottom=1;" vertex="1" parent="hZePbDuDjzv67LmMwOUX-343">
          <mxGeometry y="30" width="180" height="30" as="geometry" />
        </mxCell>
        <mxCell id="hZePbDuDjzv67LmMwOUX-345" value="PK" style="shape=partialRectangle;connectable=0;fillColor=none;top=0;left=0;bottom=0;right=0;fontStyle=1;overflow=hidden;whiteSpace=wrap;html=1;" vertex="1" parent="hZePbDuDjzv67LmMwOUX-344">
          <mxGeometry width="30" height="30" as="geometry">
            <mxRectangle width="30" height="30" as="alternateBounds" />
          </mxGeometry>
        </mxCell>
        <mxCell id="hZePbDuDjzv67LmMwOUX-346" value="L_ID" style="shape=partialRectangle;connectable=0;fillColor=none;top=0;left=0;bottom=0;right=0;align=left;spacingLeft=6;fontStyle=5;overflow=hidden;whiteSpace=wrap;html=1;" vertex="1" parent="hZePbDuDjzv67LmMwOUX-344">
          <mxGeometry x="30" width="150" height="30" as="geometry">
            <mxRectangle width="150" height="30" as="alternateBounds" />
          </mxGeometry>
        </mxCell>
        <mxCell id="hZePbDuDjzv67LmMwOUX-347" value="" style="shape=tableRow;horizontal=0;startSize=0;swimlaneHead=0;swimlaneBody=0;fillColor=none;collapsible=0;dropTarget=0;points=[[0,0.5],[1,0.5]];portConstraint=eastwest;top=0;left=0;right=0;bottom=0;" vertex="1" parent="hZePbDuDjzv67LmMwOUX-343">
          <mxGeometry y="60" width="180" height="30" as="geometry" />
        </mxCell>
        <mxCell id="hZePbDuDjzv67LmMwOUX-348" value="" style="shape=partialRectangle;connectable=0;fillColor=none;top=0;left=0;bottom=0;right=0;editable=1;overflow=hidden;whiteSpace=wrap;html=1;" vertex="1" parent="hZePbDuDjzv67LmMwOUX-347">
          <mxGeometry width="30" height="30" as="geometry">
            <mxRectangle width="30" height="30" as="alternateBounds" />
          </mxGeometry>
        </mxCell>
        <mxCell id="hZePbDuDjzv67LmMwOUX-349" value="강의명" style="shape=partialRectangle;connectable=0;fillColor=none;top=0;left=0;bottom=0;right=0;align=left;spacingLeft=6;overflow=hidden;whiteSpace=wrap;html=1;" vertex="1" parent="hZePbDuDjzv67LmMwOUX-347">
          <mxGeometry x="30" width="150" height="30" as="geometry">
            <mxRectangle width="150" height="30" as="alternateBounds" />
          </mxGeometry>
        </mxCell>
        <mxCell id="hZePbDuDjzv67LmMwOUX-350" value="" style="shape=tableRow;horizontal=0;startSize=0;swimlaneHead=0;swimlaneBody=0;fillColor=none;collapsible=0;dropTarget=0;points=[[0,0.5],[1,0.5]];portConstraint=eastwest;top=0;left=0;right=0;bottom=0;" vertex="1" parent="hZePbDuDjzv67LmMwOUX-343">
          <mxGeometry y="90" width="180" height="30" as="geometry" />
        </mxCell>
        <mxCell id="hZePbDuDjzv67LmMwOUX-351" value="" style="shape=partialRectangle;connectable=0;fillColor=none;top=0;left=0;bottom=0;right=0;editable=1;overflow=hidden;whiteSpace=wrap;html=1;" vertex="1" parent="hZePbDuDjzv67LmMwOUX-350">
          <mxGeometry width="30" height="30" as="geometry">
            <mxRectangle width="30" height="30" as="alternateBounds" />
          </mxGeometry>
        </mxCell>
        <mxCell id="hZePbDuDjzv67LmMwOUX-352" value="강의장명" style="shape=partialRectangle;connectable=0;fillColor=none;top=0;left=0;bottom=0;right=0;align=left;spacingLeft=6;overflow=hidden;whiteSpace=wrap;html=1;" vertex="1" parent="hZePbDuDjzv67LmMwOUX-350">
          <mxGeometry x="30" width="150" height="30" as="geometry">
            <mxRectangle width="150" height="30" as="alternateBounds" />
          </mxGeometry>
        </mxCell>
        <mxCell id="hZePbDuDjzv67LmMwOUX-353" value="" style="shape=tableRow;horizontal=0;startSize=0;swimlaneHead=0;swimlaneBody=0;fillColor=none;collapsible=0;dropTarget=0;points=[[0,0.5],[1,0.5]];portConstraint=eastwest;top=0;left=0;right=0;bottom=0;" vertex="1" parent="hZePbDuDjzv67LmMwOUX-343">
          <mxGeometry y="120" width="180" height="30" as="geometry" />
        </mxCell>
        <mxCell id="hZePbDuDjzv67LmMwOUX-354" value="" style="shape=partialRectangle;connectable=0;fillColor=none;top=0;left=0;bottom=0;right=0;editable=1;overflow=hidden;whiteSpace=wrap;html=1;" vertex="1" parent="hZePbDuDjzv67LmMwOUX-353">
          <mxGeometry width="30" height="30" as="geometry">
            <mxRectangle width="30" height="30" as="alternateBounds" />
          </mxGeometry>
        </mxCell>
        <mxCell id="hZePbDuDjzv67LmMwOUX-355" value="강사명" style="shape=partialRectangle;connectable=0;fillColor=none;top=0;left=0;bottom=0;right=0;align=left;spacingLeft=6;overflow=hidden;whiteSpace=wrap;html=1;" vertex="1" parent="hZePbDuDjzv67LmMwOUX-353">
          <mxGeometry x="30" width="150" height="30" as="geometry">
            <mxRectangle width="150" height="30" as="alternateBounds" />
          </mxGeometry>
        </mxCell>
        <mxCell id="hZePbDuDjzv67LmMwOUX-390" value="" style="shape=tableRow;horizontal=0;startSize=0;swimlaneHead=0;swimlaneBody=0;fillColor=none;collapsible=0;dropTarget=0;points=[[0,0.5],[1,0.5]];portConstraint=eastwest;top=0;left=0;right=0;bottom=0;" vertex="1" parent="hZePbDuDjzv67LmMwOUX-343">
          <mxGeometry y="150" width="180" height="30" as="geometry" />
        </mxCell>
        <mxCell id="hZePbDuDjzv67LmMwOUX-391" value="" style="shape=partialRectangle;connectable=0;fillColor=none;top=0;left=0;bottom=0;right=0;editable=1;overflow=hidden;whiteSpace=wrap;html=1;" vertex="1" parent="hZePbDuDjzv67LmMwOUX-390">
          <mxGeometry width="30" height="30" as="geometry">
            <mxRectangle width="30" height="30" as="alternateBounds" />
          </mxGeometry>
        </mxCell>
        <mxCell id="hZePbDuDjzv67LmMwOUX-392" value="강의시간" style="shape=partialRectangle;connectable=0;fillColor=none;top=0;left=0;bottom=0;right=0;align=left;spacingLeft=6;overflow=hidden;whiteSpace=wrap;html=1;" vertex="1" parent="hZePbDuDjzv67LmMwOUX-390">
          <mxGeometry x="30" width="150" height="30" as="geometry">
            <mxRectangle width="150" height="30" as="alternateBounds" />
          </mxGeometry>
        </mxCell>
        <mxCell id="hZePbDuDjzv67LmMwOUX-389" value="" style="edgeStyle=orthogonalEdgeStyle;rounded=0;orthogonalLoop=1;jettySize=auto;html=1;startArrow=ERoneToMany;startFill=0;endArrow=ERone;endFill=0;" edge="1" parent="1" source="hZePbDuDjzv67LmMwOUX-359" target="hZePbDuDjzv67LmMwOUX-376">
          <mxGeometry relative="1" as="geometry" />
        </mxCell>
        <mxCell id="hZePbDuDjzv67LmMwOUX-359" value="수강신청" style="shape=table;startSize=30;container=1;collapsible=1;childLayout=tableLayout;fixedRows=1;rowLines=0;fontStyle=1;align=center;resizeLast=1;html=1;" vertex="1" parent="1">
          <mxGeometry x="70" y="3090" width="180" height="210" as="geometry" />
        </mxCell>
        <mxCell id="hZePbDuDjzv67LmMwOUX-360" value="" style="shape=tableRow;horizontal=0;startSize=0;swimlaneHead=0;swimlaneBody=0;fillColor=none;collapsible=0;dropTarget=0;points=[[0,0.5],[1,0.5]];portConstraint=eastwest;top=0;left=0;right=0;bottom=1;" vertex="1" parent="hZePbDuDjzv67LmMwOUX-359">
          <mxGeometry y="30" width="180" height="30" as="geometry" />
        </mxCell>
        <mxCell id="hZePbDuDjzv67LmMwOUX-361" value="PK" style="shape=partialRectangle;connectable=0;fillColor=none;top=0;left=0;bottom=0;right=0;fontStyle=1;overflow=hidden;whiteSpace=wrap;html=1;" vertex="1" parent="hZePbDuDjzv67LmMwOUX-360">
          <mxGeometry width="30" height="30" as="geometry">
            <mxRectangle width="30" height="30" as="alternateBounds" />
          </mxGeometry>
        </mxCell>
        <mxCell id="hZePbDuDjzv67LmMwOUX-362" value="R_ID" style="shape=partialRectangle;connectable=0;fillColor=none;top=0;left=0;bottom=0;right=0;align=left;spacingLeft=6;fontStyle=5;overflow=hidden;whiteSpace=wrap;html=1;" vertex="1" parent="hZePbDuDjzv67LmMwOUX-360">
          <mxGeometry x="30" width="150" height="30" as="geometry">
            <mxRectangle width="150" height="30" as="alternateBounds" />
          </mxGeometry>
        </mxCell>
        <mxCell id="hZePbDuDjzv67LmMwOUX-399" value="" style="shape=tableRow;horizontal=0;startSize=0;swimlaneHead=0;swimlaneBody=0;fillColor=none;collapsible=0;dropTarget=0;points=[[0,0.5],[1,0.5]];portConstraint=eastwest;top=0;left=0;right=0;bottom=1;" vertex="1" parent="hZePbDuDjzv67LmMwOUX-359">
          <mxGeometry y="60" width="180" height="30" as="geometry" />
        </mxCell>
        <mxCell id="hZePbDuDjzv67LmMwOUX-400" value="FK" style="shape=partialRectangle;connectable=0;fillColor=none;top=0;left=0;bottom=0;right=0;fontStyle=1;overflow=hidden;whiteSpace=wrap;html=1;" vertex="1" parent="hZePbDuDjzv67LmMwOUX-399">
          <mxGeometry width="30" height="30" as="geometry">
            <mxRectangle width="30" height="30" as="alternateBounds" />
          </mxGeometry>
        </mxCell>
        <mxCell id="hZePbDuDjzv67LmMwOUX-401" value="S_ID" style="shape=partialRectangle;connectable=0;fillColor=none;top=0;left=0;bottom=0;right=0;align=left;spacingLeft=6;fontStyle=5;overflow=hidden;whiteSpace=wrap;html=1;" vertex="1" parent="hZePbDuDjzv67LmMwOUX-399">
          <mxGeometry x="30" width="150" height="30" as="geometry">
            <mxRectangle width="150" height="30" as="alternateBounds" />
          </mxGeometry>
        </mxCell>
        <mxCell id="hZePbDuDjzv67LmMwOUX-402" value="" style="shape=tableRow;horizontal=0;startSize=0;swimlaneHead=0;swimlaneBody=0;fillColor=none;collapsible=0;dropTarget=0;points=[[0,0.5],[1,0.5]];portConstraint=eastwest;top=0;left=0;right=0;bottom=1;" vertex="1" parent="hZePbDuDjzv67LmMwOUX-359">
          <mxGeometry y="90" width="180" height="30" as="geometry" />
        </mxCell>
        <mxCell id="hZePbDuDjzv67LmMwOUX-403" value="FK" style="shape=partialRectangle;connectable=0;fillColor=none;top=0;left=0;bottom=0;right=0;fontStyle=1;overflow=hidden;whiteSpace=wrap;html=1;" vertex="1" parent="hZePbDuDjzv67LmMwOUX-402">
          <mxGeometry width="30" height="30" as="geometry">
            <mxRectangle width="30" height="30" as="alternateBounds" />
          </mxGeometry>
        </mxCell>
        <mxCell id="hZePbDuDjzv67LmMwOUX-404" value="L_ID" style="shape=partialRectangle;connectable=0;fillColor=none;top=0;left=0;bottom=0;right=0;align=left;spacingLeft=6;fontStyle=5;overflow=hidden;whiteSpace=wrap;html=1;" vertex="1" parent="hZePbDuDjzv67LmMwOUX-402">
          <mxGeometry x="30" width="150" height="30" as="geometry">
            <mxRectangle width="150" height="30" as="alternateBounds" />
          </mxGeometry>
        </mxCell>
        <mxCell id="hZePbDuDjzv67LmMwOUX-363" value="" style="shape=tableRow;horizontal=0;startSize=0;swimlaneHead=0;swimlaneBody=0;fillColor=none;collapsible=0;dropTarget=0;points=[[0,0.5],[1,0.5]];portConstraint=eastwest;top=0;left=0;right=0;bottom=0;" vertex="1" parent="hZePbDuDjzv67LmMwOUX-359">
          <mxGeometry y="120" width="180" height="30" as="geometry" />
        </mxCell>
        <mxCell id="hZePbDuDjzv67LmMwOUX-364" value="" style="shape=partialRectangle;connectable=0;fillColor=none;top=0;left=0;bottom=0;right=0;editable=1;overflow=hidden;whiteSpace=wrap;html=1;" vertex="1" parent="hZePbDuDjzv67LmMwOUX-363">
          <mxGeometry width="30" height="30" as="geometry">
            <mxRectangle width="30" height="30" as="alternateBounds" />
          </mxGeometry>
        </mxCell>
        <mxCell id="hZePbDuDjzv67LmMwOUX-365" value="R_DATE" style="shape=partialRectangle;connectable=0;fillColor=none;top=0;left=0;bottom=0;right=0;align=left;spacingLeft=6;overflow=hidden;whiteSpace=wrap;html=1;" vertex="1" parent="hZePbDuDjzv67LmMwOUX-363">
          <mxGeometry x="30" width="150" height="30" as="geometry">
            <mxRectangle width="150" height="30" as="alternateBounds" />
          </mxGeometry>
        </mxCell>
        <mxCell id="hZePbDuDjzv67LmMwOUX-366" value="" style="shape=tableRow;horizontal=0;startSize=0;swimlaneHead=0;swimlaneBody=0;fillColor=none;collapsible=0;dropTarget=0;points=[[0,0.5],[1,0.5]];portConstraint=eastwest;top=0;left=0;right=0;bottom=0;" vertex="1" parent="hZePbDuDjzv67LmMwOUX-359">
          <mxGeometry y="150" width="180" height="30" as="geometry" />
        </mxCell>
        <mxCell id="hZePbDuDjzv67LmMwOUX-367" value="" style="shape=partialRectangle;connectable=0;fillColor=none;top=0;left=0;bottom=0;right=0;editable=1;overflow=hidden;whiteSpace=wrap;html=1;" vertex="1" parent="hZePbDuDjzv67LmMwOUX-366">
          <mxGeometry width="30" height="30" as="geometry">
            <mxRectangle width="30" height="30" as="alternateBounds" />
          </mxGeometry>
        </mxCell>
        <mxCell id="hZePbDuDjzv67LmMwOUX-368" value="" style="shape=partialRectangle;connectable=0;fillColor=none;top=0;left=0;bottom=0;right=0;align=left;spacingLeft=6;overflow=hidden;whiteSpace=wrap;html=1;" vertex="1" parent="hZePbDuDjzv67LmMwOUX-366">
          <mxGeometry x="30" width="150" height="30" as="geometry">
            <mxRectangle width="150" height="30" as="alternateBounds" />
          </mxGeometry>
        </mxCell>
        <mxCell id="hZePbDuDjzv67LmMwOUX-369" value="" style="shape=tableRow;horizontal=0;startSize=0;swimlaneHead=0;swimlaneBody=0;fillColor=none;collapsible=0;dropTarget=0;points=[[0,0.5],[1,0.5]];portConstraint=eastwest;top=0;left=0;right=0;bottom=0;" vertex="1" parent="hZePbDuDjzv67LmMwOUX-359">
          <mxGeometry y="180" width="180" height="30" as="geometry" />
        </mxCell>
        <mxCell id="hZePbDuDjzv67LmMwOUX-370" value="" style="shape=partialRectangle;connectable=0;fillColor=none;top=0;left=0;bottom=0;right=0;editable=1;overflow=hidden;whiteSpace=wrap;html=1;" vertex="1" parent="hZePbDuDjzv67LmMwOUX-369">
          <mxGeometry width="30" height="30" as="geometry">
            <mxRectangle width="30" height="30" as="alternateBounds" />
          </mxGeometry>
        </mxCell>
        <mxCell id="hZePbDuDjzv67LmMwOUX-371" value="" style="shape=partialRectangle;connectable=0;fillColor=none;top=0;left=0;bottom=0;right=0;align=left;spacingLeft=6;overflow=hidden;whiteSpace=wrap;html=1;" vertex="1" parent="hZePbDuDjzv67LmMwOUX-369">
          <mxGeometry x="30" width="150" height="30" as="geometry">
            <mxRectangle width="150" height="30" as="alternateBounds" />
          </mxGeometry>
        </mxCell>
        <mxCell id="hZePbDuDjzv67LmMwOUX-376" value="학생" style="shape=table;startSize=30;container=1;collapsible=1;childLayout=tableLayout;fixedRows=1;rowLines=0;fontStyle=1;align=center;resizeLast=1;html=1;" vertex="1" parent="1">
          <mxGeometry x="327.5" y="3120" width="180" height="150" as="geometry" />
        </mxCell>
        <mxCell id="hZePbDuDjzv67LmMwOUX-377" value="" style="shape=tableRow;horizontal=0;startSize=0;swimlaneHead=0;swimlaneBody=0;fillColor=none;collapsible=0;dropTarget=0;points=[[0,0.5],[1,0.5]];portConstraint=eastwest;top=0;left=0;right=0;bottom=1;" vertex="1" parent="hZePbDuDjzv67LmMwOUX-376">
          <mxGeometry y="30" width="180" height="30" as="geometry" />
        </mxCell>
        <mxCell id="hZePbDuDjzv67LmMwOUX-378" value="PK" style="shape=partialRectangle;connectable=0;fillColor=none;top=0;left=0;bottom=0;right=0;fontStyle=1;overflow=hidden;whiteSpace=wrap;html=1;" vertex="1" parent="hZePbDuDjzv67LmMwOUX-377">
          <mxGeometry width="30" height="30" as="geometry">
            <mxRectangle width="30" height="30" as="alternateBounds" />
          </mxGeometry>
        </mxCell>
        <mxCell id="hZePbDuDjzv67LmMwOUX-379" value="S_ID" style="shape=partialRectangle;connectable=0;fillColor=none;top=0;left=0;bottom=0;right=0;align=left;spacingLeft=6;fontStyle=5;overflow=hidden;whiteSpace=wrap;html=1;" vertex="1" parent="hZePbDuDjzv67LmMwOUX-377">
          <mxGeometry x="30" width="150" height="30" as="geometry">
            <mxRectangle width="150" height="30" as="alternateBounds" />
          </mxGeometry>
        </mxCell>
        <mxCell id="hZePbDuDjzv67LmMwOUX-380" value="" style="shape=tableRow;horizontal=0;startSize=0;swimlaneHead=0;swimlaneBody=0;fillColor=none;collapsible=0;dropTarget=0;points=[[0,0.5],[1,0.5]];portConstraint=eastwest;top=0;left=0;right=0;bottom=0;" vertex="1" parent="hZePbDuDjzv67LmMwOUX-376">
          <mxGeometry y="60" width="180" height="30" as="geometry" />
        </mxCell>
        <mxCell id="hZePbDuDjzv67LmMwOUX-381" value="" style="shape=partialRectangle;connectable=0;fillColor=none;top=0;left=0;bottom=0;right=0;editable=1;overflow=hidden;whiteSpace=wrap;html=1;" vertex="1" parent="hZePbDuDjzv67LmMwOUX-380">
          <mxGeometry width="30" height="30" as="geometry">
            <mxRectangle width="30" height="30" as="alternateBounds" />
          </mxGeometry>
        </mxCell>
        <mxCell id="hZePbDuDjzv67LmMwOUX-382" value="이름" style="shape=partialRectangle;connectable=0;fillColor=none;top=0;left=0;bottom=0;right=0;align=left;spacingLeft=6;overflow=hidden;whiteSpace=wrap;html=1;" vertex="1" parent="hZePbDuDjzv67LmMwOUX-380">
          <mxGeometry x="30" width="150" height="30" as="geometry">
            <mxRectangle width="150" height="30" as="alternateBounds" />
          </mxGeometry>
        </mxCell>
        <mxCell id="hZePbDuDjzv67LmMwOUX-383" value="" style="shape=tableRow;horizontal=0;startSize=0;swimlaneHead=0;swimlaneBody=0;fillColor=none;collapsible=0;dropTarget=0;points=[[0,0.5],[1,0.5]];portConstraint=eastwest;top=0;left=0;right=0;bottom=0;" vertex="1" parent="hZePbDuDjzv67LmMwOUX-376">
          <mxGeometry y="90" width="180" height="30" as="geometry" />
        </mxCell>
        <mxCell id="hZePbDuDjzv67LmMwOUX-384" value="" style="shape=partialRectangle;connectable=0;fillColor=none;top=0;left=0;bottom=0;right=0;editable=1;overflow=hidden;whiteSpace=wrap;html=1;" vertex="1" parent="hZePbDuDjzv67LmMwOUX-383">
          <mxGeometry width="30" height="30" as="geometry">
            <mxRectangle width="30" height="30" as="alternateBounds" />
          </mxGeometry>
        </mxCell>
        <mxCell id="hZePbDuDjzv67LmMwOUX-385" value="나이" style="shape=partialRectangle;connectable=0;fillColor=none;top=0;left=0;bottom=0;right=0;align=left;spacingLeft=6;overflow=hidden;whiteSpace=wrap;html=1;" vertex="1" parent="hZePbDuDjzv67LmMwOUX-383">
          <mxGeometry x="30" width="150" height="30" as="geometry">
            <mxRectangle width="150" height="30" as="alternateBounds" />
          </mxGeometry>
        </mxCell>
        <mxCell id="hZePbDuDjzv67LmMwOUX-386" value="" style="shape=tableRow;horizontal=0;startSize=0;swimlaneHead=0;swimlaneBody=0;fillColor=none;collapsible=0;dropTarget=0;points=[[0,0.5],[1,0.5]];portConstraint=eastwest;top=0;left=0;right=0;bottom=0;" vertex="1" parent="hZePbDuDjzv67LmMwOUX-376">
          <mxGeometry y="120" width="180" height="30" as="geometry" />
        </mxCell>
        <mxCell id="hZePbDuDjzv67LmMwOUX-387" value="" style="shape=partialRectangle;connectable=0;fillColor=none;top=0;left=0;bottom=0;right=0;editable=1;overflow=hidden;whiteSpace=wrap;html=1;" vertex="1" parent="hZePbDuDjzv67LmMwOUX-386">
          <mxGeometry width="30" height="30" as="geometry">
            <mxRectangle width="30" height="30" as="alternateBounds" />
          </mxGeometry>
        </mxCell>
        <mxCell id="hZePbDuDjzv67LmMwOUX-388" value="연락처" style="shape=partialRectangle;connectable=0;fillColor=none;top=0;left=0;bottom=0;right=0;align=left;spacingLeft=6;overflow=hidden;whiteSpace=wrap;html=1;" vertex="1" parent="hZePbDuDjzv67LmMwOUX-386">
          <mxGeometry x="30" width="150" height="30" as="geometry">
            <mxRectangle width="150" height="30" as="alternateBounds" />
          </mxGeometry>
        </mxCell>
      </root>
    </mxGraphModel>
  </diagram>
</mxfile>
